# xmcd
#
# Track frame offsets: 
#        150
#        12474
#        23974
#        36990
#        48927
#        61769
#        72619
#        86172
#        97960
#        110395
#        122330
#        134422
#        145928
#        158937
#        170914
#        183336
#        194939
#        206062
#        215396
#        226025
#        237345
#        246855
#        258479
#        272968
#        287420
#        300864
#        315302
#        332384
#
# Disc length: 4590 seconds
#
# Revision: 1
# Processed by: cddbd v1.5.2PL0 Copyright (c) Steve Scherf et al.
# Submitted via: ExactAudioCopyFreeDBPlugin 1.0
#
DISCID=9711ec1c
DTITLE=The Louvin Brothers - The Christian Life - The Definitive Louvi
DTITLE=n Brothers Story Disc 1
DYEAR=2013
DGENRE=Country
TTITLE0=My Love Song of You
TTITLE1=The 'Get Acquainted' Waltz
TTITLE2=The Weapon of Prayer
TTITLE3=They've Got the Church Outnumbered
TTITLE4=Do You Live What You Preach
TTITLE5=You'll Be Rewarded Over There
TTITLE6=I'll Live With God (to Die No More)
TTITLE7=Robe of White
TTITLE8=The Great Atomic Power
TTITLE9=Insured Beyond the Grave
TTITLE10=The Gospel Way
TTITLE11=The Sons and Daughters of God
TTITLE12=The Family Who Prays (Shall Never Part)
TTITLE13=Last Chance to Pray
TTITLE14=Nearer My God to Thee
TTITLE15=I Can't Say No
TTITLE16=When I Stop Dreaming
TTITLE17=Pitfall
TTITLE18=Memories and Tears
TTITLE19=Don't Laugh
TTITLE20=I Don't Believe You've Met My Baby
TTITLE21=Hoping That You're Hoping
TTITLE22=I'll Be All Smiles Tonight
TTITLE23=In the Pines
TTITLE24=What Is Home Without Love
TTITLE25=Mary of the Wild Moor
TTITLE26=Knoxville Girl
TTITLE27=Kentucky
EXTD=
EXTT0=
EXTT1=
EXTT2=
EXTT3=
EXTT4=
EXTT5=
EXTT6=
EXTT7=
EXTT8=
EXTT9=
EXTT10=
EXTT11=
EXTT12=
EXTT13=
EXTT14=
EXTT15=
EXTT16=
EXTT17=
EXTT18=
EXTT19=
EXTT20=
EXTT21=
EXTT22=
EXTT23=
EXTT24=
EXTT25=
EXTT26=
EXTT27=
PLAYORDER=
